<?xml version="1.0" encoding="utf-8"?>
<!-- Generator: Adobe Illustrator 22.1.0, SVG Export Plug-In . SVG Version: 6.00 Build 0)  -->
<svg version="1.1" id="Layer_1" xmlns="http://www.w3.org/2000/svg" xmlns:xlink="http://www.w3.org/1999/xlink" x="0px" y="0px"
	 viewBox="0 0 448 99" style="enable-background:new 0 0 448 99;" xml:space="preserve">
<style type="text/css">
	.st0{fill:none;stroke:#FFFFFF;stroke-width:3;stroke-miterlimit:10;}
</style>
<g>
</g>
<g>
	<path class="st0" d="M43.8,85H33.7l-2.1-12.4H18.8L16.7,85H6.6v-0.2l13.3-65.2h10.8L43.8,85z M30.2,64.2l-5-29.4l-5,29.4H30.2z"/>
	<path class="st0" d="M83.2,79c0,4-2.1,6-6.3,6H49.6V19.7h27.2c4.1,0,6.1,2,6.1,6v16.8c0,2.2-0.7,3.9-2.2,5.2
		c-0.2,0.2-2,1.2-5.3,3.2c3.5,2,5.3,3.1,5.5,3.3c1.6,1.3,2.4,3.1,2.4,5.4V79z M72.7,43.8V27.9H59.8v19.1h7.9L72.7,43.8z M72.9,76.8
		V58.2l-5-3.2h-8.1v21.8H72.9z"/>
	<path class="st0" d="M125.4,72.7c0,3.8-1.2,6.8-3.6,9c-2.4,2.2-5.6,3.3-9.7,3.3H91.3V19.7h20.9c4.1,0,7.3,1.1,9.7,3.3
		c2.4,2.2,3.6,5.2,3.6,9.1V72.7z M115.1,71.1V33.6c0-3.6-2-5.5-6-5.5h-7.6v48.5h7.4C113.1,76.6,115.1,74.8,115.1,71.1z"/>
	<path class="st0" d="M167.6,79c0,4-2.1,6-6.3,6h-21.8c-4.1,0-6.2-2-6.2-6V19.7h10.2v56.9h13.8V19.7h10.2V79z"/>
	<path class="st0" d="M202.8,85h-26.9V19.7h10.2v56.6h16.7V85z"/>
	<path class="st0" d="M299.1,85h-10.2l-2.1-12.4H274L272,85h-10.1v-0.2l13.3-65.2h10.8L299.1,85z M285.4,64.2l-5-29.4l-5,29.4H285.4
		z"/>
	<path class="st0" d="M333.9,85h-31.5v-5.2l19.2-51.3h-17.6v-8.8h29.9v5.6l-19.1,50.8h19.2V85z"/>
	<path class="st0" d="M368.2,85h-28.4V19.7H368v8.6H350v19.1h15.4v8.5H350v20.5h18.2V85z"/>
	<path class="st0" d="M403.6,85h-28.4V19.7h28.2v8.6h-17.9v19.1h15.4v8.5h-15.4v20.5h18.2V85z"/>
	<path class="st0" d="M439.7,85h-31.5v-5.2l19.2-51.3h-17.6v-8.8h29.9v5.6l-19.1,50.8h19.2V85z"/>
</g>
<g>
</g>
<g>
</g>
<g>
</g>
<g>
</g>
<g>
</g>
<g>
</g>
<g>
</g>
<g>
</g>
<g>
</g>
<g>
</g>
<g>
</g>
<g>
</g>
<g>
</g>
<g>
</g>
<g>
</g>
</svg>
